<svg version="1.1" width="3252.1733" height="3966.6667" viewBox="0 0 3252.1733 3966.6667" xmlns="http://www.w3.org/2000/svg">
  <g transform="matrix(1.3333333,0,0,-1.3333333,0,3966.6667)">
    <g transform="scale(0.1)">
      <path d="M 21300.4,9457.5 13203.6,453.602 c -571.2,-604.801 -1478.3,-604.801 -2049.5,0 L 3090.91,9457.5 C 1108.69,11674.9 0.00390625,14564.2 0.00390625,17587.9 v 0 C 0.00390625,24307.3 5442.69,29750 12162.1,29750 h 67.1 c 6719.4,0 12162.1,-5442.7 12162.1,-12162.1 v 0 c 0,-3023.7 -1108.7,-5913 -3090.9,-8130.4" style="fill:#64a1dc;fill-opacity:1;fill-rule:nonzero;stroke:none"/>
      <path d="m 12229.2,25113.6 c 4156.4,0 7525.7,-3369.3 7525.7,-7525.7 0,-4156.3 -3369.3,-7525.6 -7525.7,-7525.6 -4156.28,0 -7525.64,3369.3 -7525.64,7525.6 0,4156.4 3369.36,7525.7 7525.64,7525.7" style="fill:#ffffff;fill-opacity:1;fill-rule:nonzero;stroke:none"/>
      <path d="m 14658.4,22331.9 c 1005.1,0 1819.9,-814.8 1819.9,-1819.9 0,-1005.1 -814.8,-1819.9 -1819.9,-1819.9 -1005.1,0 -1819.8,814.8 -1819.8,1819.9 0,1005.1 814.7,1819.9 1819.8,1819.9" style="fill:#fbc757;fill-opacity:1;fill-rule:nonzero;stroke:none"/>
      <path d="m 19562,15884.6 c -265.4,-1155.7 -799.6,-2207.3 -1532,-3090.9 -1377.5,-1669.8 -3463.9,-2731.4 -5798.8,-2731.4 -1108.7,0 -2160.3,238.5 -3107.74,671.9 L 16582,17755.9 c 299,282.2 766,278.9 1061.6,-6.7 L 19562,15884.6" style="fill:#63c555;fill-opacity:1;fill-rule:nonzero;stroke:none"/>
      <path d="m 18030,12793.7 c -1377.5,-1669.8 -3463.9,-2731.4 -5798.8,-2731.4 -3060.7,0 -5691.34,1824.3 -6867.23,4448.2 l 4999.23,4706.9 c 299,282.2 769.3,278.9 1065,-6.7 l 6601.8,-6417" style="fill:#75cb58;fill-opacity:1;fill-rule:nonzero;stroke:none"/>
    </g>
  </g>
</svg>
